<?xml version="1.0" encoding="utf-8"?>
<!-- Generator: Adobe Illustrator 21.1.0, SVG Export Plug-In . SVG Version: 6.00 Build 0)  -->
<svg version="1.1" id="Layer_1" xmlns="http://www.w3.org/2000/svg" xmlns:xlink="http://www.w3.org/1999/xlink" x="0px" y="0px"
	 viewBox="0 0 244.2 105.3" style="enable-background:new 0 0 244.2 105.3;" xml:space="preserve">
<style type="text/css">
	.st0{fill:none;stroke:#6D6875;stroke-miterlimit:10;}
	.st1{fill:#B5838D;}
</style>
<title>logo</title>
<g id="Layer_2">
	<g id="Layer_1-2">
		<path class="st0" d="M5,98.8V5C4.9,3.5,6,2.3,7.5,2.2c0.2,0,0.3,0,0.5,0h32.5C42,2,43.3,3,43.5,4.5c0,0.2,0,0.4,0,0.6v1.3
			c0.1,1.5-1,2.9-2.5,3c-0.2,0-0.3,0-0.5,0H12.7v39.1h23.5c1.5-0.1,2.9,1,3,2.5c0,0.2,0,0.3,0,0.5v1.1c0.1,1.5-1,2.9-2.5,3
			c-0.2,0-0.3,0-0.5,0H12.7v43.3c0.2,1.4-0.8,2.7-2.2,2.8c-0.2,0-0.4,0-0.6,0H8c-1.5,0.2-2.8-0.8-3-2.3C5,99.2,5,99,5,98.8z"/>
		<path class="st0" d="M95.4,101.7h-2.1c-1.6,0.2-3-1-3.1-2.5l0,0l-5-23H58.3l-5,23c-0.1,1.5-1.4,2.7-2.9,2.6c-0.1,0-0.1,0-0.2,0
			h-1.7c-2,0-2.8-1.1-2.6-3.3L67,4.8c0.1-1.5,1.4-2.7,3-2.6h0.1h3.4C75,2,76.4,3.1,76.6,4.6c0,0.1,0,0.1,0,0.2l21.3,93.6
			C98.3,100.5,97.4,101.7,95.4,101.7z M83.6,69.1L71.8,14.3l-12,54.8H83.6z"/>
		<path class="st0" d="M157.6,101.7h-2.3c-1.5,0.1-2.9-0.9-3.3-2.4l-20-52.2l-12.9,21.2v30.6c0.2,1.4-0.8,2.7-2.2,2.8
			c-0.2,0-0.4,0-0.6,0h-1.8c-1.5,0.2-2.8-0.8-3-2.3c0-0.2,0-0.4,0-0.6V5c-0.1-1.5,1-2.7,2.4-2.9c0.2,0,0.4,0,0.6,0h1.8
			c1.4-0.2,2.7,0.8,2.8,2.2c0,0.2,0,0.4,0,0.6v50.9l30.4-51.6c0.7-1.3,2.1-2.2,3.6-2.1h2.3c2.3,0,3.3,1.4,2,3.4L136.9,39l23,59.1
			C160.6,100.2,159.7,101.7,157.6,101.7z"/>
		<path class="st0" d="M209,101.7h-33.5c-1.5,0.2-2.8-0.8-3-2.3c0-0.2,0-0.4,0-0.6V5c-0.1-1.5,1-2.7,2.4-2.9c0.2,0,0.4,0,0.6,0h33.1
			c1.5-0.2,2.8,0.8,3,2.3c0,0.2,0,0.4,0,0.6v1.3c0.1,1.5-1,2.9-2.5,3c-0.2,0-0.3,0-0.5,0h-28.4v38.3h24c1.5-0.1,2.9,1,3,2.5
			c0,0.2,0,0.3,0,0.5v1.1c0.1,1.5-1,2.9-2.5,3c-0.2,0-0.3,0-0.5,0h-24v39.8H209c1.5-0.1,2.9,1,3,2.5c0,0.2,0,0.3,0,0.5v1.3
			c0.1,1.5-1,2.7-2.5,2.8C209.4,101.7,209.2,101.7,209,101.7z"/>
		<path class="st1" d="M232.8,20.3c-3.6,0-5.3-1.4-5.8-2.9l-0.4,2.7h-1.2V0h2.1v8c0.6-1.5,2.1-2.7,5.4-2.7c5,0,6.3,3.3,6.3,7.4
			S237.9,20.3,232.8,20.3z M232.2,7.2c-4.1,0-4.8,2.3-4.8,5.5c0,3.5,0.9,5.8,4.9,5.8s4.7-2.3,4.7-5.8S236.2,7.2,232.2,7.2z"/>
		<path class="st1" d="M232,48.7c-5.5,0-6.9-3.6-6.9-7.4s1.4-7.4,7-7.4s7,3.6,7,7.4S237.5,48.7,232,48.7z M232,35.6
			c-3.8,0-4.8,2.6-4.8,5.6s0.9,5.7,4.8,5.7s4.8-2.6,4.8-5.7S235.9,35.6,232,35.6z"/>
		<path class="st1" d="M232,77.1c-5.5,0-6.9-3.6-6.9-7.4s1.4-7.4,7-7.4s7,3.6,7,7.4S237.5,77.1,232,77.1z M232,64
			c-3.8,0-4.8,2.6-4.8,5.6s0.9,5.7,4.8,5.7s4.8-2.6,4.8-5.7S235.9,64,232,64z"/>
		<path class="st1" d="M236,105.3l-7.4-6.7v6.7h-2.1V85.2h2.1v11.6l6.6-6h3.1l-8.1,6.9l8.8,7.6L236,105.3z"/>
	</g>
</g>
</svg>
